STARTFONT 2.1
FONT -Gohu-Gohufont-Medium-R-Normal--14-100-100-100-C-80-ISO8859-1
SIZE 14 100 100
FONTBOUNDINGBOX 16 28 0 -6
STARTPROPERTIES 8
DEFAULT_CHAR 255
FACE_NAME "-Gohu-Gohufont-Medium-R-Normal--14-100-100-100-C-80-ISO8859-1"
FONT_ASCENT 22
FONT_DESCENT 6
PIXEL_SIZE 20
POINT_SIZE 140
RESOLUTION_X 100
RESOLUTION_Y 100
ENDPROPERTIES
CHARS 191
STARTCHAR space
ENCODING 32
SWIDTH 800 0
DWIDTH 16 0
BBX 16 28 0 -6
BITMAP
0000
0000
0000
0000
0000
0000
0000
0000
0000
0000
0000
0000
0000
0000
0000
0000
0000
0000
0000
0000
0000
0000
0000
0000
0000
0000
0000
0000
ENDCHAR
STARTCHAR exclam
ENCODING 33
SWIDTH 800 0
DWIDTH 16 0
BBX 16 28 0 -6
BITMAP
0000
0000
0300
0300
0300
0300
0300
0300
0300
0300
0300
0300
0300
0300
0300
0300
0000
0000
0300
0300
0300
0300
0000
0000
0000
0000
0000
0000
ENDCHAR
STARTCHAR quotedbl
ENCODING 34
SWIDTH 800 0
DWIDTH 16 0
BBX 16 28 0 -6
BITMAP
0000
0000
0C30
0C30
0C30
0C30
0C30
0C30
0000
0000
0000
0000
0000
0000
0000
0000
0000
0000
0000
0000
0000
0000
0000
0000
0000
0000
0000
0000
ENDCHAR
STARTCHAR numbersign
ENCODING 35
SWIDTH 800 0
DWIDTH 16 0
BBX 16 28 0 -6
BITMAP
0000
0000
0CC0
0CC0
0CC0
0CC0
0CC0
0CC0
FFFC
FFFC
0CC0
0CC0
0CC0
0CC0
FFFC
FFFC
0CC0
0CC0
0CC0
0CC0
0CC0
0CC0
0000
0000
0000
0000
0000
0000
ENDCHAR
STARTCHAR dollar
ENCODING 36
SWIDTH 800 0
DWIDTH 16 0
BBX 16 28 0 -6
BITMAP
0300
0300
0300
0300
3FF0
3FF0
C30C
C30C
C300
C300
C300
C300
3FF0
3FF0
030C
030C
030C
030C
C30C
C30C
3FF0
3FF0
0300
0300
0300
0300
0000
0000
ENDCHAR
STARTCHAR percent
ENCODING 37
SWIDTH 800 0
DWIDTH 16 0
BBX 16 28 0 -6
BITMAP
0000
0000
0000
0000
3C30
3C30
C330
C330
3CC0
3CC0
00C0
00C0
0300
0300
0300
0300
0C00
0C00
0CF0
0CF0
330C
330C
30F0
30F0
0000
0000
0000
0000
ENDCHAR
STARTCHAR ampersand
ENCODING 38
SWIDTH 800 0
DWIDTH 16 0
BBX 16 28 0 -6
BITMAP
0000
0000
03C0
03C0
0C30
0C30
0C30
0C30
03C0
03C0
0F00
0F00
30CC
30CC
3030
3030
3030
3030
3030
3030
0FCC
0FCC
0000
0000
0000
0000
0000
0000
ENDCHAR
STARTCHAR quotesingle
ENCODING 39
SWIDTH 800 0
DWIDTH 16 0
BBX 16 28 0 -6
BITMAP
0000
0000
0300
0300
0300
0300
0300
0300
0300
0300
0000
0000
0000
0000
0000
0000
0000
0000
0000
0000
0000
0000
0000
0000
0000
0000
0000
0000
ENDCHAR
STARTCHAR parenleft
ENCODING 40
SWIDTH 800 0
DWIDTH 16 0
BBX 16 28 0 -6
BITMAP
0000
0000
00C0
00C0
0300
0300
0C00
0C00
0C00
0C00
3000
3000
3000
3000
3000
3000
3000
3000
0C00
0C00
0C00
0C00
0300
0300
00C0
00C0
0000
0000
ENDCHAR
STARTCHAR parenright
ENCODING 41
SWIDTH 800 0
DWIDTH 16 0
BBX 16 28 0 -6
BITMAP
0000
0000
0C00
0C00
0300
0300
00C0
00C0
00C0
00C0
0030
0030
0030
0030
0030
0030
0030
0030
00C0
00C0
00C0
00C0
0300
0300
0C00
0C00
0000
0000
ENDCHAR
STARTCHAR asterisk
ENCODING 42
SWIDTH 800 0
DWIDTH 16 0
BBX 16 28 0 -6
BITMAP
0000
0000
0000
0000
0000
0000
0300
0300
C30C
C30C
3330
3330
0FC0
0FC0
3330
3330
C30C
C30C
0300
0300
0000
0000
0000
0000
0000
0000
0000
0000
ENDCHAR
STARTCHAR plus
ENCODING 43
SWIDTH 800 0
DWIDTH 16 0
BBX 16 28 0 -6
BITMAP
0000
0000
0000
0000
0000
0000
0300
0300
0300
0300
0300
0300
FFFC
FFFC
0300
0300
0300
0300
0300
0300
0000
0000
0000
0000
0000
0000
0000
0000
ENDCHAR
STARTCHAR comma
ENCODING 44
SWIDTH 800 0
DWIDTH 16 0
BBX 16 28 0 -6
BITMAP
0000
0000
0000
0000
0000
0000
0000
0000
0000
0000
0000
0000
0000
0000
0000
0000
0000
0000
0F00
0F00
0F00
0F00
0300
0300
0C00
0C00
0000
0000
ENDCHAR
STARTCHAR hyphen
ENCODING 45
SWIDTH 800 0
DWIDTH 16 0
BBX 16 28 0 -6
BITMAP
0000
0000
0000
0000
0000
0000
0000
0000
0000
0000
0000
0000
3FFC
3FFC
0000
0000
0000
0000
0000
0000
0000
0000
0000
0000
0000
0000
0000
0000
ENDCHAR
STARTCHAR period
ENCODING 46
SWIDTH 800 0
DWIDTH 16 0
BBX 16 28 0 -6
BITMAP
0000
0000
0000
0000
0000
0000
0000
0000
0000
0000
0000
0000
0000
0000
0000
0000
0000
0000
0F00
0F00
0F00
0F00
0000
0000
0000
0000
0000
0000
ENDCHAR
STARTCHAR slash
ENCODING 47
SWIDTH 800 0
DWIDTH 16 0
BBX 16 28 0 -6
BITMAP
000C
000C
000C
000C
0030
0030
0030
0030
00C0
00C0
00C0
00C0
0300
0300
0300
0300
0C00
0C00
0C00
0C00
3000
3000
3000
3000
0000
0000
0000
0000
ENDCHAR
STARTCHAR zero
ENCODING 48
SWIDTH 800 0
DWIDTH 16 0
BBX 16 28 0 -6
BITMAP
0000
0000
0000
0000
0FF0
0FF0
300C
300C
303C
303C
30CC
30CC
330C
330C
3C0C
3C0C
300C
300C
300C
300C
0FF0
0FF0
0000
0000
0000
0000
0000
0000
ENDCHAR
STARTCHAR one
ENCODING 49
SWIDTH 800 0
DWIDTH 16 0
BBX 16 28 0 -6
BITMAP
0000
0000
0000
0000
00C0
00C0
03C0
03C0
0CC0
0CC0
30C0
30C0
00C0
00C0
00C0
00C0
00C0
00C0
00C0
00C0
00C0
00C0
0000
0000
0000
0000
0000
0000
ENDCHAR
STARTCHAR two
ENCODING 50
SWIDTH 800 0
DWIDTH 16 0
BBX 16 28 0 -6
BITMAP
0000
0000
0000
0000
0FF0
0FF0
300C
300C
300C
300C
0030
0030
00C0
00C0
0300
0300
0C00
0C00
3000
3000
3FFC
3FFC
0000
0000
0000
0000
0000
0000
ENDCHAR
STARTCHAR three
ENCODING 51
SWIDTH 800 0
DWIDTH 16 0
BBX 16 28 0 -6
BITMAP
0000
0000
0000
0000
0FF0
0FF0
300C
300C
000C
000C
000C
000C
03F0
03F0
000C
000C
000C
000C
300C
300C
0FF0
0FF0
0000
0000
0000
0000
0000
0000
ENDCHAR
STARTCHAR four
ENCODING 52
SWIDTH 800 0
DWIDTH 16 0
BBX 16 28 0 -6
BITMAP
0000
0000
0000
0000
0030
0030
00F0
00F0
0330
0330
0C30
0C30
3030
3030
3FFC
3FFC
0030
0030
0030
0030
0030
0030
0000
0000
0000
0000
0000
0000
ENDCHAR
STARTCHAR five
ENCODING 53
SWIDTH 800 0
DWIDTH 16 0
BBX 16 28 0 -6
BITMAP
0000
0000
0000
0000
3FFC
3FFC
3000
3000
3000
3000
3FF0
3FF0
000C
000C
000C
000C
000C
000C
300C
300C
0FF0
0FF0
0000
0000
0000
0000
0000
0000
ENDCHAR
STARTCHAR six
ENCODING 54
SWIDTH 800 0
DWIDTH 16 0
BBX 16 28 0 -6
BITMAP
0000
0000
0000
0000
0FF0
0FF0
3000
3000
3000
3000
3FF0
3FF0
300C
300C
300C
300C
300C
300C
300C
300C
0FF0
0FF0
0000
0000
0000
0000
0000
0000
ENDCHAR
STARTCHAR seven
ENCODING 55
SWIDTH 800 0
DWIDTH 16 0
BBX 16 28 0 -6
BITMAP
0000
0000
0000
0000
3FFC
3FFC
000C
000C
0030
0030
0030
0030
00C0
00C0
00C0
00C0
0300
0300
0300
0300
0300
0300
0000
0000
0000
0000
0000
0000
ENDCHAR
STARTCHAR eight
ENCODING 56
SWIDTH 800 0
DWIDTH 16 0
BBX 16 28 0 -6
BITMAP
0000
0000
0000
0000
0FF0
0FF0
300C
300C
300C
300C
300C
300C
0FF0
0FF0
300C
300C
300C
300C
300C
300C
0FF0
0FF0
0000
0000
0000
0000
0000
0000
ENDCHAR
STARTCHAR nine
ENCODING 57
SWIDTH 800 0
DWIDTH 16 0
BBX 16 28 0 -6
BITMAP
0000
0000
0000
0000
0FF0
0FF0
300C
300C
300C
300C
300C
300C
0FFC
0FFC
000C
000C
000C
000C
0030
0030
0FC0
0FC0
0000
0000
0000
0000
0000
0000
ENDCHAR
STARTCHAR colon
ENCODING 58
SWIDTH 800 0
DWIDTH 16 0
BBX 16 28 0 -6
BITMAP
0000
0000
0000
0000
0000
0000
0000
0000
03C0
03C0
03C0
03C0
0000
0000
0000
0000
0000
0000
03C0
03C0
03C0
03C0
0000
0000
0000
0000
0000
0000
ENDCHAR
STARTCHAR semicolon
ENCODING 59
SWIDTH 800 0
DWIDTH 16 0
BBX 16 28 0 -6
BITMAP
0000
0000
0000
0000
0000
0000
0000
0000
0F00
0F00
0F00
0F00
0000
0000
0000
0000
0000
0000
0F00
0F00
0F00
0F00
0300
0300
0C00
0C00
0000
0000
ENDCHAR
STARTCHAR less
ENCODING 60
SWIDTH 800 0
DWIDTH 16 0
BBX 16 28 0 -6
BITMAP
0000
0000
0000
0000
0030
0030
00C0
00C0
0300
0300
0C00
0C00
3000
3000
0C00
0C00
0300
0300
00C0
00C0
0030
0030
0000
0000
0000
0000
0000
0000
ENDCHAR
STARTCHAR equal
ENCODING 61
SWIDTH 800 0
DWIDTH 16 0
BBX 16 28 0 -6
BITMAP
0000
0000
0000
0000
0000
0000
0000
0000
3FFC
3FFC
0000
0000
0000
0000
0000
0000
3FFC
3FFC
0000
0000
0000
0000
0000
0000
0000
0000
0000
0000
ENDCHAR
STARTCHAR greater
ENCODING 62
SWIDTH 800 0
DWIDTH 16 0
BBX 16 28 0 -6
BITMAP
0000
0000
0000
0000
3000
3000
0C00
0C00
0300
0300
00C0
00C0
0030
0030
00C0
00C0
0300
0300
0C00
0C00
3000
3000
0000
0000
0000
0000
0000
0000
ENDCHAR
STARTCHAR question
ENCODING 63
SWIDTH 800 0
DWIDTH 16 0
BBX 16 28 0 -6
BITMAP
0000
0000
0FF0
0FF0
300C
300C
000C
000C
000C
000C
0030
0030
00C0
00C0
0300
0300
0000
0000
0300
0300
0300
0300
0000
0000
0000
0000
0000
0000
ENDCHAR
STARTCHAR at
ENCODING 64
SWIDTH 800 0
DWIDTH 16 0
BBX 16 28 0 -6
BITMAP
0000
0000
3FF0
3FF0
C00C
C00C
C3FC
C3FC
CC0C
CC0C
CC0C
CC0C
CC0C
CC0C
CC3C
CC3C
C3CC
C3CC
C000
C000
3FFC
3FFC
0000
0000
0000
0000
0000
0000
ENDCHAR
STARTCHAR A
ENCODING 65
SWIDTH 800 0
DWIDTH 16 0
BBX 16 28 0 -6
BITMAP
0000
0000
0000
0000
0FF0
0FF0
300C
300C
300C
300C
300C
300C
3FFC
3FFC
300C
300C
300C
300C
300C
300C
300C
300C
0000
0000
0000
0000
0000
0000
ENDCHAR
STARTCHAR B
ENCODING 66
SWIDTH 800 0
DWIDTH 16 0
BBX 16 28 0 -6
BITMAP
0000
0000
0000
0000
3FF0
3FF0
300C
300C
300C
300C
300C
300C
3FF0
3FF0
300C
300C
300C
300C
300C
300C
3FF0
3FF0
0000
0000
0000
0000
0000
0000
ENDCHAR
STARTCHAR C
ENCODING 67
SWIDTH 800 0
DWIDTH 16 0
BBX 16 28 0 -6
BITMAP
0000
0000
0000
0000
0FF0
0FF0
300C
300C
3000
3000
3000
3000
3000
3000
3000
3000
3000
3000
300C
300C
0FF0
0FF0
0000
0000
0000
0000
0000
0000
ENDCHAR
STARTCHAR D
ENCODING 68
SWIDTH 800 0
DWIDTH 16 0
BBX 16 28 0 -6
BITMAP
0000
0000
0000
0000
3FC0
3FC0
3030
3030
300C
300C
300C
300C
300C
300C
300C
300C
300C
300C
3030
3030
3FC0
3FC0
0000
0000
0000
0000
0000
0000
ENDCHAR
STARTCHAR E
ENCODING 69
SWIDTH 800 0
DWIDTH 16 0
BBX 16 28 0 -6
BITMAP
0000
0000
0000
0000
3FFC
3FFC
3000
3000
3000
3000
3000
3000
3FC0
3FC0
3000
3000
3000
3000
3000
3000
3FFC
3FFC
0000
0000
0000
0000
0000
0000
ENDCHAR
STARTCHAR F
ENCODING 70
SWIDTH 800 0
DWIDTH 16 0
BBX 16 28 0 -6
BITMAP
0000
0000
0000
0000
3FFC
3FFC
3000
3000
3000
3000
3000
3000
3FC0
3FC0
3000
3000
3000
3000
3000
3000
3000
3000
0000
0000
0000
0000
0000
0000
ENDCHAR
STARTCHAR G
ENCODING 71
SWIDTH 800 0
DWIDTH 16 0
BBX 16 28 0 -6
BITMAP
0000
0000
0000
0000
0FF0
0FF0
300C
300C
3000
3000
3000
3000
30FC
30FC
300C
300C
300C
300C
300C
300C
0FF0
0FF0
0000
0000
0000
0000
0000
0000
ENDCHAR
STARTCHAR H
ENCODING 72
SWIDTH 800 0
DWIDTH 16 0
BBX 16 28 0 -6
BITMAP
0000
0000
0000
0000
300C
300C
300C
300C
300C
300C
300C
300C
3FFC
3FFC
300C
300C
300C
300C
300C
300C
300C
300C
0000
0000
0000
0000
0000
0000
ENDCHAR
STARTCHAR I
ENCODING 73
SWIDTH 800 0
DWIDTH 16 0
BBX 16 28 0 -6
BITMAP
0000
0000
0000
0000
0FC0
0FC0
0300
0300
0300
0300
0300
0300
0300
0300
0300
0300
0300
0300
0300
0300
0FC0
0FC0
0000
0000
0000
0000
0000
0000
ENDCHAR
STARTCHAR J
ENCODING 74
SWIDTH 800 0
DWIDTH 16 0
BBX 16 28 0 -6
BITMAP
0000
0000
0000
0000
000C
000C
000C
000C
000C
000C
000C
000C
000C
000C
000C
000C
300C
300C
300C
300C
0FF0
0FF0
0000
0000
0000
0000
0000
0000
ENDCHAR
STARTCHAR K
ENCODING 75
SWIDTH 800 0
DWIDTH 16 0
BBX 16 28 0 -6
BITMAP
0000
0000
0000
0000
300C
300C
3030
3030
30C0
30C0
3300
3300
3C00
3C00
3300
3300
30C0
30C0
3030
3030
300C
300C
0000
0000
0000
0000
0000
0000
ENDCHAR
STARTCHAR L
ENCODING 76
SWIDTH 800 0
DWIDTH 16 0
BBX 16 28 0 -6
BITMAP
0000
0000
0000
0000
3000
3000
3000
3000
3000
3000
3000
3000
3000
3000
3000
3000
3000
3000
3000
3000
3FFC
3FFC
0000
0000
0000
0000
0000
0000
ENDCHAR
STARTCHAR M
ENCODING 77
SWIDTH 800 0
DWIDTH 16 0
BBX 16 28 0 -6
BITMAP
0000
0000
0000
0000
C00C
C00C
F03C
F03C
CCCC
CCCC
C30C
C30C
C30C
C30C
C00C
C00C
C00C
C00C
C00C
C00C
C00C
C00C
0000
0000
0000
0000
0000
0000
ENDCHAR
STARTCHAR N
ENCODING 78
SWIDTH 800 0
DWIDTH 16 0
BBX 16 28 0 -6
BITMAP
0000
0000
0000
0000
300C
300C
3C0C
3C0C
3C0C
3C0C
330C
330C
330C
330C
30CC
30CC
30CC
30CC
303C
303C
303C
303C
0000
0000
0000
0000
0000
0000
ENDCHAR
STARTCHAR O
ENCODING 79
SWIDTH 800 0
DWIDTH 16 0
BBX 16 28 0 -6
BITMAP
0000
0000
0000
0000
0FF0
0FF0
300C
300C
300C
300C
300C
300C
300C
300C
300C
300C
300C
300C
300C
300C
0FF0
0FF0
0000
0000
0000
0000
0000
0000
ENDCHAR
STARTCHAR P
ENCODING 80
SWIDTH 800 0
DWIDTH 16 0
BBX 16 28 0 -6
BITMAP
0000
0000
0000
0000
3FF0
3FF0
300C
300C
300C
300C
300C
300C
3FF0
3FF0
3000
3000
3000
3000
3000
3000
3000
3000
0000
0000
0000
0000
0000
0000
ENDCHAR
STARTCHAR Q
ENCODING 81
SWIDTH 800 0
DWIDTH 16 0
BBX 16 28 0 -6
BITMAP
0000
0000
0000
0000
0FF0
0FF0
300C
300C
300C
300C
300C
300C
300C
300C
30CC
30CC
30CC
30CC
3030
3030
0FCC
0FCC
000C
000C
0000
0000
0000
0000
ENDCHAR
STARTCHAR R
ENCODING 82
SWIDTH 800 0
DWIDTH 16 0
BBX 16 28 0 -6
BITMAP
0000
0000
0000
0000
3FF0
3FF0
300C
300C
300C
300C
300C
300C
3FF0
3FF0
30C0
30C0
3030
3030
300C
300C
300C
300C
0000
0000
0000
0000
0000
0000
ENDCHAR
STARTCHAR S
ENCODING 83
SWIDTH 800 0
DWIDTH 16 0
BBX 16 28 0 -6
BITMAP
0000
0000
0000
0000
0FF0
0FF0
300C
300C
3000
3000
3000
3000
0FF0
0FF0
000C
000C
000C
000C
300C
300C
0FF0
0FF0
0000
0000
0000
0000
0000
0000
ENDCHAR
STARTCHAR T
ENCODING 84
SWIDTH 800 0
DWIDTH 16 0
BBX 16 28 0 -6
BITMAP
0000
0000
0000
0000
FFFC
FFFC
0300
0300
0300
0300
0300
0300
0300
0300
0300
0300
0300
0300
0300
0300
0300
0300
0000
0000
0000
0000
0000
0000
ENDCHAR
STARTCHAR U
ENCODING 85
SWIDTH 800 0
DWIDTH 16 0
BBX 16 28 0 -6
BITMAP
0000
0000
0000
0000
300C
300C
300C
300C
300C
300C
300C
300C
300C
300C
300C
300C
300C
300C
300C
300C
0FF0
0FF0
0000
0000
0000
0000
0000
0000
ENDCHAR
STARTCHAR V
ENCODING 86
SWIDTH 800 0
DWIDTH 16 0
BBX 16 28 0 -6
BITMAP
0000
0000
0000
0000
300C
300C
300C
300C
300C
300C
300C
300C
0C30
0C30
0C30
0C30
0C30
0C30
03C0
03C0
03C0
03C0
0000
0000
0000
0000
0000
0000
ENDCHAR
STARTCHAR W
ENCODING 87
SWIDTH 800 0
DWIDTH 16 0
BBX 16 28 0 -6
BITMAP
0000
0000
0000
0000
C00C
C00C
C00C
C00C
C30C
C30C
C30C
C30C
C30C
C30C
CCCC
CCCC
3030
3030
3030
3030
3030
3030
0000
0000
0000
0000
0000
0000
ENDCHAR
STARTCHAR X
ENCODING 88
SWIDTH 800 0
DWIDTH 16 0
BBX 16 28 0 -6
BITMAP
0000
0000
0000
0000
300C
300C
300C
300C
0C30
0C30
0C30
0C30
03C0
03C0
0C30
0C30
0C30
0C30
300C
300C
300C
300C
0000
0000
0000
0000
0000
0000
ENDCHAR
STARTCHAR Y
ENCODING 89
SWIDTH 800 0
DWIDTH 16 0
BBX 16 28 0 -6
BITMAP
0000
0000
0000
0000
C00C
C00C
C00C
C00C
3030
3030
3030
3030
0CC0
0CC0
0300
0300
0300
0300
0300
0300
0300
0300
0000
0000
0000
0000
0000
0000
ENDCHAR
STARTCHAR Z
ENCODING 90
SWIDTH 800 0
DWIDTH 16 0
BBX 16 28 0 -6
BITMAP
0000
0000
0000
0000
3FFC
3FFC
000C
000C
0030
0030
00C0
00C0
0300
0300
0C00
0C00
3000
3000
3000
3000
3FFC
3FFC
0000
0000
0000
0000
0000
0000
ENDCHAR
STARTCHAR bracketleft
ENCODING 91
SWIDTH 800 0
DWIDTH 16 0
BBX 16 28 0 -6
BITMAP
0000
0000
03F0
03F0
0300
0300
0300
0300
0300
0300
0300
0300
0300
0300
0300
0300
0300
0300
0300
0300
0300
0300
03F0
03F0
0000
0000
0000
0000
ENDCHAR
STARTCHAR backslash
ENCODING 92
SWIDTH 800 0
DWIDTH 16 0
BBX 16 28 0 -6
BITMAP
3000
3000
3000
3000
0C00
0C00
0C00
0C00
0300
0300
0300
0300
00C0
00C0
00C0
00C0
0030
0030
0030
0030
000C
000C
000C
000C
0000
0000
0000
0000
ENDCHAR
STARTCHAR bracketright
ENCODING 93
SWIDTH 800 0
DWIDTH 16 0
BBX 16 28 0 -6
BITMAP
0000
0000
0FC0
0FC0
00C0
00C0
00C0
00C0
00C0
00C0
00C0
00C0
00C0
00C0
00C0
00C0
00C0
00C0
00C0
00C0
00C0
00C0
0FC0
0FC0
0000
0000
0000
0000
ENDCHAR
STARTCHAR asciicircum
ENCODING 94
SWIDTH 800 0
DWIDTH 16 0
BBX 16 28 0 -6
BITMAP
0000
0000
0300
0300
0CC0
0CC0
3030
3030
0000
0000
0000
0000
0000
0000
0000
0000
0000
0000
0000
0000
0000
0000
0000
0000
0000
0000
0000
0000
ENDCHAR
STARTCHAR underscore
ENCODING 95
SWIDTH 800 0
DWIDTH 16 0
BBX 16 28 0 -6
BITMAP
0000
0000
0000
0000
0000
0000
0000
0000
0000
0000
0000
0000
0000
0000
0000
0000
0000
0000
0000
0000
0000
0000
FFFF
FFFF
0000
0000
0000
0000
ENDCHAR
STARTCHAR grave
ENCODING 96
SWIDTH 800 0
DWIDTH 16 0
BBX 16 28 0 -6
BITMAP
0000
0000
3000
3000
0C00
0C00
0300
0300
0000
0000
0000
0000
0000
0000
0000
0000
0000
0000
0000
0000
0000
0000
0000
0000
0000
0000
0000
0000
ENDCHAR
STARTCHAR a
ENCODING 97
SWIDTH 800 0
DWIDTH 16 0
BBX 16 28 0 -6
BITMAP
0000
0000
0000
0000
0000
0000
0000
0000
0FF0
0FF0
000C
000C
0FFC
0FFC
300C
300C
300C
300C
303C
303C
0FCC
0FCC
0000
0000
0000
0000
0000
0000
ENDCHAR
STARTCHAR b
ENCODING 98
SWIDTH 800 0
DWIDTH 16 0
BBX 16 28 0 -6
BITMAP
0000
0000
3000
3000
3000
3000
3000
3000
33F0
33F0
3C0C
3C0C
300C
300C
300C
300C
300C
300C
300C
300C
3FF0
3FF0
0000
0000
0000
0000
0000
0000
ENDCHAR
STARTCHAR c
ENCODING 99
SWIDTH 800 0
DWIDTH 16 0
BBX 16 28 0 -6
BITMAP
0000
0000
0000
0000
0000
0000
0000
0000
0FF0
0FF0
300C
300C
3000
3000
3000
3000
3000
3000
300C
300C
0FF0
0FF0
0000
0000
0000
0000
0000
0000
ENDCHAR
STARTCHAR d
ENCODING 100
SWIDTH 800 0
DWIDTH 16 0
BBX 16 28 0 -6
BITMAP
0000
0000
000C
000C
000C
000C
000C
000C
0FFC
0FFC
300C
300C
300C
300C
300C
300C
300C
300C
303C
303C
0FCC
0FCC
0000
0000
0000
0000
0000
0000
ENDCHAR
STARTCHAR e
ENCODING 101
SWIDTH 800 0
DWIDTH 16 0
BBX 16 28 0 -6
BITMAP
0000
0000
0000
0000
0000
0000
0000
0000
0FF0
0FF0
300C
300C
300C
300C
3FFC
3FFC
3000
3000
3000
3000
0FFC
0FFC
0000
0000
0000
0000
0000
0000
ENDCHAR
STARTCHAR f
ENCODING 102
SWIDTH 800 0
DWIDTH 16 0
BBX 16 28 0 -6
BITMAP
0000
0000
03F0
03F0
0C00
0C00
0C00
0C00
0C00
0C00
0FF0
0FF0
0C00
0C00
0C00
0C00
0C00
0C00
0C00
0C00
0C00
0C00
0000
0000
0000
0000
0000
0000
ENDCHAR
STARTCHAR g
ENCODING 103
SWIDTH 800 0
DWIDTH 16 0
BBX 16 28 0 -6
BITMAP
0000
0000
0000
0000
0000
0000
0000
0000
0FFC
0FFC
300C
300C
300C
300C
300C
300C
300C
300C
303C
303C
0FCC
0FCC
000C
000C
000C
000C
0FF0
0FF0
ENDCHAR
STARTCHAR h
ENCODING 104
SWIDTH 800 0
DWIDTH 16 0
BBX 16 28 0 -6
BITMAP
0000
0000
3000
3000
3000
3000
3000
3000
33F0
33F0
3C0C
3C0C
300C
300C
300C
300C
300C
300C
300C
300C
300C
300C
0000
0000
0000
0000
0000
0000
ENDCHAR
STARTCHAR i
ENCODING 105
SWIDTH 800 0
DWIDTH 16 0
BBX 16 28 0 -6
BITMAP
0000
0000
0300
0300
0300
0300
0000
0000
3F00
3F00
0300
0300
0300
0300
0300
0300
0300
0300
0300
0300
03F0
03F0
0000
0000
0000
0000
0000
0000
ENDCHAR
STARTCHAR j
ENCODING 106
SWIDTH 800 0
DWIDTH 16 0
BBX 16 28 0 -6
BITMAP
0000
0000
00C0
00C0
00C0
00C0
0000
0000
03C0
03C0
00C0
00C0
00C0
00C0
00C0
00C0
00C0
00C0
00C0
00C0
00C0
00C0
00C0
00C0
00C0
00C0
3F00
3F00
ENDCHAR
STARTCHAR k
ENCODING 107
SWIDTH 800 0
DWIDTH 16 0
BBX 16 28 0 -6
BITMAP
0000
0000
3000
3000
3000
3000
3000
3000
3000
3000
3030
3030
30C0
30C0
3F00
3F00
30C0
30C0
3030
3030
300C
300C
0000
0000
0000
0000
0000
0000
ENDCHAR
STARTCHAR l
ENCODING 108
SWIDTH 800 0
DWIDTH 16 0
BBX 16 28 0 -6
BITMAP
0000
0000
0F00
0F00
0300
0300
0300
0300
0300
0300
0300
0300
0300
0300
0300
0300
0300
0300
0300
0300
00FC
00FC
0000
0000
0000
0000
0000
0000
ENDCHAR
STARTCHAR m
ENCODING 109
SWIDTH 800 0
DWIDTH 16 0
BBX 16 28 0 -6
BITMAP
0000
0000
0000
0000
0000
0000
0000
0000
FFF0
FFF0
C30C
C30C
C30C
C30C
C30C
C30C
C30C
C30C
C30C
C30C
C30C
C30C
0000
0000
0000
0000
0000
0000
ENDCHAR
STARTCHAR n
ENCODING 110
SWIDTH 800 0
DWIDTH 16 0
BBX 16 28 0 -6
BITMAP
0000
0000
0000
0000
0000
0000
0000
0000
3FF0
3FF0
300C
300C
300C
300C
300C
300C
300C
300C
300C
300C
300C
300C
0000
0000
0000
0000
0000
0000
ENDCHAR
STARTCHAR o
ENCODING 111
SWIDTH 800 0
DWIDTH 16 0
BBX 16 28 0 -6
BITMAP
0000
0000
0000
0000
0000
0000
0000
0000
0FF0
0FF0
300C
300C
300C
300C
300C
300C
300C
300C
300C
300C
0FF0
0FF0
0000
0000
0000
0000
0000
0000
ENDCHAR
STARTCHAR p
ENCODING 112
SWIDTH 800 0
DWIDTH 16 0
BBX 16 28 0 -6
BITMAP
0000
0000
0000
0000
0000
0000
0000
0000
33F0
33F0
3C0C
3C0C
300C
300C
300C
300C
300C
300C
300C
300C
3FF0
3FF0
3000
3000
3000
3000
3000
3000
ENDCHAR
STARTCHAR q
ENCODING 113
SWIDTH 800 0
DWIDTH 16 0
BBX 16 28 0 -6
BITMAP
0000
0000
0000
0000
0000
0000
0000
0000
0FFC
0FFC
300C
300C
300C
300C
300C
300C
300C
300C
303C
303C
0FCC
0FCC
000C
000C
000C
000C
000C
000C
ENDCHAR
STARTCHAR r
ENCODING 114
SWIDTH 800 0
DWIDTH 16 0
BBX 16 28 0 -6
BITMAP
0000
0000
0000
0000
0000
0000
0000
0000
33F0
33F0
3C0C
3C0C
3000
3000
3000
3000
3000
3000
3000
3000
3000
3000
0000
0000
0000
0000
0000
0000
ENDCHAR
STARTCHAR s
ENCODING 115
SWIDTH 800 0
DWIDTH 16 0
BBX 16 28 0 -6
BITMAP
0000
0000
0000
0000
0000
0000
0000
0000
0FF0
0FF0
3000
3000
3000
3000
0FF0
0FF0
000C
000C
000C
000C
3FF0
3FF0
0000
0000
0000
0000
0000
0000
ENDCHAR
STARTCHAR t
ENCODING 116
SWIDTH 800 0
DWIDTH 16 0
BBX 16 28 0 -6
BITMAP
0000
0000
0300
0300
0300
0300
0300
0300
0FF0
0FF0
0300
0300
0300
0300
0300
0300
0300
0300
0300
0300
00F0
00F0
0000
0000
0000
0000
0000
0000
ENDCHAR
STARTCHAR u
ENCODING 117
SWIDTH 800 0
DWIDTH 16 0
BBX 16 28 0 -6
BITMAP
0000
0000
0000
0000
0000
0000
0000
0000
300C
300C
300C
300C
300C
300C
300C
300C
300C
300C
303C
303C
0FCC
0FCC
0000
0000
0000
0000
0000
0000
ENDCHAR
STARTCHAR v
ENCODING 118
SWIDTH 800 0
DWIDTH 16 0
BBX 16 28 0 -6
BITMAP
0000
0000
0000
0000
0000
0000
0000
0000
300C
300C
300C
300C
300C
300C
0C30
0C30
0C30
0C30
03C0
03C0
03C0
03C0
0000
0000
0000
0000
0000
0000
ENDCHAR
STARTCHAR w
ENCODING 119
SWIDTH 800 0
DWIDTH 16 0
BBX 16 28 0 -6
BITMAP
0000
0000
0000
0000
0000
0000
0000
0000
C00C
C00C
C00C
C00C
C30C
C30C
C30C
C30C
CCCC
CCCC
3030
3030
3030
3030
0000
0000
0000
0000
0000
0000
ENDCHAR
STARTCHAR x
ENCODING 120
SWIDTH 800 0
DWIDTH 16 0
BBX 16 28 0 -6
BITMAP
0000
0000
0000
0000
0000
0000
0000
0000
300C
300C
300C
300C
0C30
0C30
03C0
03C0
0C30
0C30
300C
300C
300C
300C
0000
0000
0000
0000
0000
0000
ENDCHAR
STARTCHAR y
ENCODING 121
SWIDTH 800 0
DWIDTH 16 0
BBX 16 28 0 -6
BITMAP
0000
0000
0000
0000
0000
0000
0000
0000
300C
300C
300C
300C
300C
300C
300C
300C
300C
300C
303C
303C
0FCC
0FCC
000C
000C
000C
000C
0FF0
0FF0
ENDCHAR
STARTCHAR z
ENCODING 122
SWIDTH 800 0
DWIDTH 16 0
BBX 16 28 0 -6
BITMAP
0000
0000
0000
0000
0000
0000
0000
0000
3FFC
3FFC
0030
0030
00C0
00C0
0300
0300
0C00
0C00
3000
3000
3FFC
3FFC
0000
0000
0000
0000
0000
0000
ENDCHAR
STARTCHAR braceleft
ENCODING 123
SWIDTH 800 0
DWIDTH 16 0
BBX 16 28 0 -6
BITMAP
0000
0000
00FC
00FC
0300
0300
0300
0300
0300
0300
0300
0300
0300
0300
FC00
FC00
0300
0300
0300
0300
0300
0300
0300
0300
00FC
00FC
0000
0000
ENDCHAR
STARTCHAR bar
ENCODING 124
SWIDTH 800 0
DWIDTH 16 0
BBX 16 28 0 -6
BITMAP
0000
0000
0300
0300
0300
0300
0300
0300
0300
0300
0300
0300
0300
0300
0300
0300
0300
0300
0300
0300
0300
0300
0300
0300
0300
0300
0000
0000
ENDCHAR
STARTCHAR braceright
ENCODING 125
SWIDTH 800 0
DWIDTH 16 0
BBX 16 28 0 -6
BITMAP
0000
0000
3F00
3F00
00C0
00C0
00C0
00C0
00C0
00C0
00C0
00C0
00C0
00C0
003F
003F
00C0
00C0
00C0
00C0
00C0
00C0
00C0
00C0
3F00
3F00
0000
0000
ENDCHAR
STARTCHAR asciitilde
ENCODING 126
SWIDTH 800 0
DWIDTH 16 0
BBX 16 28 0 -6
BITMAP
0000
0000
0000
0000
0000
0000
0000
0000
0000
0000
3C0C
3C0C
C30C
C30C
C0F0
C0F0
0000
0000
0000
0000
0000
0000
0000
0000
0000
0000
0000
0000
ENDCHAR
STARTCHAR nbspace
ENCODING 160
SWIDTH 800 0
DWIDTH 16 0
BBX 16 28 0 -6
BITMAP
0000
0000
0000
0000
0000
0000
0000
0000
0000
0000
0000
0000
0000
0000
0000
0000
0000
0000
0000
0000
0000
0000
0000
0000
0000
0000
0000
0000
ENDCHAR
STARTCHAR exclamdown
ENCODING 161
SWIDTH 800 0
DWIDTH 16 0
BBX 16 28 0 -6
BITMAP
0000
0000
0300
0300
0300
0300
0000
0000
0300
0300
0300
0300
0300
0300
0300
0300
0300
0300
0300
0300
0300
0300
0000
0000
0000
0000
0000
0000
ENDCHAR
STARTCHAR cent
ENCODING 162
SWIDTH 800 0
DWIDTH 16 0
BBX 16 28 0 -6
BITMAP
0000
0000
0000
0000
0300
0300
0300
0300
3FF0
3FF0
C30C
C30C
C300
C300
C300
C300
C300
C300
C30C
C30C
3FF0
3FF0
0300
0300
0300
0300
0000
0000
ENDCHAR
STARTCHAR sterling
ENCODING 163
SWIDTH 800 0
DWIDTH 16 0
BBX 16 28 0 -6
BITMAP
0000
0000
03C0
03C0
0C30
0C30
0C00
0C00
0C00
0C00
3FC0
3FC0
0C00
0C00
0C00
0C00
0C00
0C00
0C0C
0C0C
33F0
33F0
0000
0000
0000
0000
0000
0000
ENDCHAR
STARTCHAR currency
ENCODING 164
SWIDTH 800 0
DWIDTH 16 0
BBX 16 28 0 -6
BITMAP
0000
0000
0000
0000
0000
0000
0000
0000
C00C
C00C
3FF0
3FF0
3030
3030
3030
3030
3030
3030
3FF0
3FF0
C00C
C00C
0000
0000
0000
0000
0000
0000
ENDCHAR
STARTCHAR yen
ENCODING 165
SWIDTH 800 0
DWIDTH 16 0
BBX 16 28 0 -6
BITMAP
0000
0000
C00C
C00C
C00C
C00C
3030
3030
0CC0
0CC0
0300
0300
3FF0
3FF0
0300
0300
3FF0
3FF0
0300
0300
0300
0300
0000
0000
0000
0000
0000
0000
ENDCHAR
STARTCHAR brokenbar
ENCODING 166
SWIDTH 800 0
DWIDTH 16 0
BBX 16 28 0 -6
BITMAP
0000
0000
0300
0300
0300
0300
0300
0300
0300
0300
0300
0300
0000
0000
0000
0000
0300
0300
0300
0300
0300
0300
0300
0300
0300
0300
0000
0000
ENDCHAR
STARTCHAR section
ENCODING 167
SWIDTH 800 0
DWIDTH 16 0
BBX 16 28 0 -6
BITMAP
0000
0000
0FC0
0FC0
3030
3030
3000
3000
0F00
0F00
30C0
30C0
3030
3030
3030
3030
0C30
0C30
03C0
03C0
0030
0030
3030
3030
0FC0
0FC0
0000
0000
ENDCHAR
STARTCHAR dieresis
ENCODING 168
SWIDTH 800 0
DWIDTH 16 0
BBX 16 28 0 -6
BITMAP
0000
0000
0C30
0C30
0C30
0C30
0000
0000
0000
0000
0000
0000
0000
0000
0000
0000
0000
0000
0000
0000
0000
0000
0000
0000
0000
0000
0000
0000
ENDCHAR
STARTCHAR copyright
ENCODING 169
SWIDTH 800 0
DWIDTH 16 0
BBX 16 28 0 -6
BITMAP
0000
0000
0000
0000
0FF0
0FF0
300C
300C
C3C3
C3C3
CC33
CC33
CC03
CC03
CC33
CC33
C3C3
C3C3
300C
300C
0FF0
0FF0
0000
0000
0000
0000
0000
0000
ENDCHAR
STARTCHAR ordfeminine
ENCODING 170
SWIDTH 800 0
DWIDTH 16 0
BBX 16 28 0 -6
BITMAP
0000
0000
0FC0
0FC0
0030
0030
0FF0
0FF0
3030
3030
0FF0
0FF0
0000
0000
3FF0
3FF0
0000
0000
0000
0000
0000
0000
0000
0000
0000
0000
0000
0000
ENDCHAR
STARTCHAR guillemotleft
ENCODING 171
SWIDTH 800 0
DWIDTH 16 0
BBX 16 28 0 -6
BITMAP
0000
0000
0000
0000
0000
0000
0000
0000
030C
030C
0C30
0C30
30C0
30C0
C300
C300
30C0
30C0
0C30
0C30
030C
030C
0000
0000
0000
0000
0000
0000
ENDCHAR
STARTCHAR logicalnot
ENCODING 172
SWIDTH 800 0
DWIDTH 16 0
BBX 16 28 0 -6
BITMAP
0000
0000
0000
0000
0000
0000
0000
0000
0000
0000
3FFC
3FFC
000C
000C
000C
000C
000C
000C
0000
0000
0000
0000
0000
0000
0000
0000
0000
0000
ENDCHAR
STARTCHAR softhyphen
ENCODING 173
SWIDTH 800 0
DWIDTH 16 0
BBX 16 28 0 -6
BITMAP
0000
0000
0000
0000
0000
0000
0000
0000
0000
0000
0000
0000
0000
0000
0FF0
0FF0
0000
0000
0000
0000
0000
0000
0000
0000
0000
0000
0000
0000
ENDCHAR
STARTCHAR registered
ENCODING 174
SWIDTH 800 0
DWIDTH 16 0
BBX 16 28 0 -6
BITMAP
0000
0000
0000
0000
0FF0
0FF0
300C
300C
CFC3
CFC3
CC33
CC33
CFC3
CFC3
CCC3
CCC3
CC33
CC33
300C
300C
0FF0
0FF0
0000
0000
0000
0000
0000
0000
ENDCHAR
STARTCHAR macron
ENCODING 175
SWIDTH 800 0
DWIDTH 16 0
BBX 16 28 0 -6
BITMAP
0000
0000
3FFC
3FFC
0000
0000
0000
0000
0000
0000
0000
0000
0000
0000
0000
0000
0000
0000
0000
0000
0000
0000
0000
0000
0000
0000
0000
0000
ENDCHAR
STARTCHAR degree
ENCODING 176
SWIDTH 800 0
DWIDTH 16 0
BBX 16 28 0 -6
BITMAP
0000
0000
03C0
03C0
0C30
0C30
0C30
0C30
03C0
03C0
0000
0000
0000
0000
0000
0000
0000
0000
0000
0000
0000
0000
0000
0000
0000
0000
0000
0000
ENDCHAR
STARTCHAR plusminus
ENCODING 177
SWIDTH 800 0
DWIDTH 16 0
BBX 16 28 0 -6
BITMAP
0000
0000
0000
0000
0000
0000
0000
0000
0300
0300
0300
0300
3FF0
3FF0
0300
0300
0300
0300
0000
0000
3FF0
3FF0
0000
0000
0000
0000
0000
0000
ENDCHAR
STARTCHAR twosuperior
ENCODING 178
SWIDTH 800 0
DWIDTH 16 0
BBX 16 28 0 -6
BITMAP
0000
0000
03C0
03C0
0C30
0C30
00C0
00C0
0300
0300
0FF0
0FF0
0000
0000
0000
0000
0000
0000
0000
0000
0000
0000
0000
0000
0000
0000
0000
0000
ENDCHAR
STARTCHAR threesuperior
ENCODING 179
SWIDTH 800 0
DWIDTH 16 0
BBX 16 28 0 -6
BITMAP
0000
0000
0FC0
0FC0
0030
0030
03C0
03C0
0030
0030
0FC0
0FC0
0000
0000
0000
0000
0000
0000
0000
0000
0000
0000
0000
0000
0000
0000
0000
0000
ENDCHAR
STARTCHAR acute
ENCODING 180
SWIDTH 800 0
DWIDTH 16 0
BBX 16 28 0 -6
BITMAP
00C0
00C0
0300
0300
0000
0000
0000
0000
0000
0000
0000
0000
0000
0000
0000
0000
0000
0000
0000
0000
0000
0000
0000
0000
0000
0000
0000
0000
ENDCHAR
STARTCHAR mu
ENCODING 181
SWIDTH 800 0
DWIDTH 16 0
BBX 16 28 0 -6
BITMAP
0000
0000
0000
0000
0000
0000
0000
0000
300C
300C
300C
300C
300C
300C
300C
300C
300C
300C
303C
303C
3FCC
3FCC
3000
3000
3000
3000
3000
3000
ENDCHAR
STARTCHAR paragraph
ENCODING 182
SWIDTH 800 0
DWIDTH 16 0
BBX 16 28 0 -6
BITMAP
0000
0000
3FFC
3FFC
FF0C
FF0C
FF0C
FF0C
FF0C
FF0C
FF0C
FF0C
3F0C
3F0C
030C
030C
030C
030C
030C
030C
030C
030C
0000
0000
0000
0000
0000
0000
ENDCHAR
STARTCHAR periodcentered
ENCODING 183
SWIDTH 800 0
DWIDTH 16 0
BBX 16 28 0 -6
BITMAP
0000
0000
0000
0000
0000
0000
0000
0000
0000
0000
0000
0000
0F00
0F00
0F00
0F00
0000
0000
0000
0000
0000
0000
0000
0000
0000
0000
0000
0000
ENDCHAR
STARTCHAR cedilla
ENCODING 184
SWIDTH 800 0
DWIDTH 16 0
BBX 16 28 0 -6
BITMAP
0000
0000
0000
0000
0000
0000
0000
0000
0000
0000
0000
0000
0000
0000
0000
0000
0000
0000
0000
0000
0000
0000
0300
0300
0300
0300
0C00
0C00
ENDCHAR
STARTCHAR onesuperior
ENCODING 185
SWIDTH 800 0
DWIDTH 16 0
BBX 16 28 0 -6
BITMAP
0000
0000
0300
0300
0F00
0F00
0300
0300
0300
0300
0FC0
0FC0
0000
0000
0000
0000
0000
0000
0000
0000
0000
0000
0000
0000
0000
0000
0000
0000
ENDCHAR
STARTCHAR ordmasculine
ENCODING 186
SWIDTH 800 0
DWIDTH 16 0
BBX 16 28 0 -6
BITMAP
0000
0000
0FC0
0FC0
3030
3030
3030
3030
3030
3030
0FC0
0FC0
0000
0000
3FF0
3FF0
0000
0000
0000
0000
0000
0000
0000
0000
0000
0000
0000
0000
ENDCHAR
STARTCHAR guillemotright
ENCODING 187
SWIDTH 800 0
DWIDTH 16 0
BBX 16 28 0 -6
BITMAP
0000
0000
0000
0000
0000
0000
0000
0000
C300
C300
30C0
30C0
0C30
0C30
030C
030C
0C30
0C30
30C0
30C0
C300
C300
0000
0000
0000
0000
0000
0000
ENDCHAR
STARTCHAR onequarter
ENCODING 188
SWIDTH 800 0
DWIDTH 16 0
BBX 16 28 0 -6
BITMAP
0C00
0C00
3C00
3C00
0C00
0C00
0C0C
0C0C
0C30
0C30
00C0
00C0
0300
0300
0C0C
0C0C
303C
303C
C0CC
C0CC
03FC
03FC
000C
000C
000C
000C
0000
0000
ENDCHAR
STARTCHAR onehalf
ENCODING 189
SWIDTH 800 0
DWIDTH 16 0
BBX 16 28 0 -6
BITMAP
0C00
0C00
3C00
3C00
0C00
0C00
0C0C
0C0C
0C30
0C30
00C0
00C0
0300
0300
0C00
0C00
30F0
30F0
C30C
C30C
0030
0030
00C0
00C0
03FC
03FC
0000
0000
ENDCHAR
STARTCHAR threequarters
ENCODING 190
SWIDTH 800 0
DWIDTH 16 0
BBX 16 28 0 -6
BITMAP
FC00
FC00
0300
0300
3C00
3C00
030C
030C
FC30
FC30
00C0
00C0
0300
0300
0C0C
0C0C
303C
303C
C0CC
C0CC
03FC
03FC
000C
000C
000C
000C
0000
0000
ENDCHAR
STARTCHAR question
ENCODING 191
SWIDTH 800 0
DWIDTH 16 0
BBX 16 28 0 -6
BITMAP
0000
0000
00C0
00C0
00C0
00C0
0000
0000
00C0
00C0
0300
0300
0C00
0C00
3000
3000
3000
3000
300C
300C
0FF0
0FF0
0000
0000
0000
0000
0000
0000
ENDCHAR
STARTCHAR Agrave
ENCODING 192
SWIDTH 800 0
DWIDTH 16 0
BBX 16 28 0 -6
BITMAP
0300
0300
00C0
00C0
0FF0
0FF0
300C
300C
300C
300C
300C
300C
3FFC
3FFC
300C
300C
300C
300C
300C
300C
300C
300C
0000
0000
0000
0000
0000
0000
ENDCHAR
STARTCHAR Aacute
ENCODING 193
SWIDTH 800 0
DWIDTH 16 0
BBX 16 28 0 -6
BITMAP
00C0
00C0
0300
0300
0FF0
0FF0
300C
300C
300C
300C
300C
300C
3FFC
3FFC
300C
300C
300C
300C
300C
300C
300C
300C
0000
0000
0000
0000
0000
0000
ENDCHAR
STARTCHAR Acircumflex
ENCODING 194
SWIDTH 800 0
DWIDTH 16 0
BBX 16 28 0 -6
BITMAP
03C0
03C0
0C30
0C30
0000
0000
0FF0
0FF0
300C
300C
300C
300C
300C
300C
3FFC
3FFC
300C
300C
300C
300C
300C
300C
0000
0000
0000
0000
0000
0000
ENDCHAR
STARTCHAR Atilde
ENCODING 195
SWIDTH 800 0
DWIDTH 16 0
BBX 16 28 0 -6
BITMAP
0F0C
0F0C
30F0
30F0
0000
0000
0FF0
0FF0
300C
300C
300C
300C
300C
300C
3FFC
3FFC
300C
300C
300C
300C
300C
300C
0000
0000
0000
0000
0000
0000
ENDCHAR
STARTCHAR Adieresis
ENCODING 196
SWIDTH 800 0
DWIDTH 16 0
BBX 16 28 0 -6
BITMAP
0C30
0C30
0C30
0C30
0000
0000
0FF0
0FF0
300C
300C
300C
300C
300C
300C
3FFC
3FFC
300C
300C
300C
300C
300C
300C
0000
0000
0000
0000
0000
0000
ENDCHAR
STARTCHAR Aring
ENCODING 197
SWIDTH 800 0
DWIDTH 16 0
BBX 16 28 0 -6
BITMAP
03C0
03C0
0C30
0C30
03C0
03C0
0FF0
0FF0
300C
300C
300C
300C
300C
300C
3FFC
3FFC
300C
300C
300C
300C
300C
300C
0000
0000
0000
0000
0000
0000
ENDCHAR
STARTCHAR AE
ENCODING 198
SWIDTH 800 0
DWIDTH 16 0
BBX 16 28 0 -6
BITMAP
0000
0000
0000
0000
3FFC
3FFC
C300
C300
C300
C300
C300
C300
FFF0
FFF0
C300
C300
C300
C300
C300
C300
C3FC
C3FC
0000
0000
0000
0000
0000
0000
ENDCHAR
STARTCHAR Ccedilla
ENCODING 199
SWIDTH 800 0
DWIDTH 16 0
BBX 16 28 0 -6
BITMAP
0000
0000
0000
0000
0FF0
0FF0
300C
300C
3000
3000
3000
3000
3000
3000
3000
3000
3000
3000
300C
300C
0FF0
0FF0
0300
0300
0C00
0C00
0000
0000
ENDCHAR
STARTCHAR Egrave
ENCODING 200
SWIDTH 800 0
DWIDTH 16 0
BBX 16 28 0 -6
BITMAP
0300
0300
00C0
00C0
3FFC
3FFC
3000
3000
3000
3000
3000
3000
3FC0
3FC0
3000
3000
3000
3000
3000
3000
3FFC
3FFC
0000
0000
0000
0000
0000
0000
ENDCHAR
STARTCHAR Eacute
ENCODING 201
SWIDTH 800 0
DWIDTH 16 0
BBX 16 28 0 -6
BITMAP
00C0
00C0
0300
0300
3FFC
3FFC
3000
3000
3000
3000
3000
3000
3FC0
3FC0
3000
3000
3000
3000
3000
3000
3FFC
3FFC
0000
0000
0000
0000
0000
0000
ENDCHAR
STARTCHAR Ecircumflex
ENCODING 202
SWIDTH 800 0
DWIDTH 16 0
BBX 16 28 0 -6
BITMAP
03C0
03C0
0C30
0C30
0000
0000
3FFC
3FFC
3000
3000
3000
3000
3FC0
3FC0
3000
3000
3000
3000
3000
3000
3FFC
3FFC
0000
0000
0000
0000
0000
0000
ENDCHAR
STARTCHAR Edieresis
ENCODING 203
SWIDTH 800 0
DWIDTH 16 0
BBX 16 28 0 -6
BITMAP
0C30
0C30
0C30
0C30
0000
0000
3FFC
3FFC
3000
3000
3000
3000
3FC0
3FC0
3000
3000
3000
3000
3000
3000
3FFC
3FFC
0000
0000
0000
0000
0000
0000
ENDCHAR
STARTCHAR Igrave
ENCODING 204
SWIDTH 800 0
DWIDTH 16 0
BBX 16 28 0 -6
BITMAP
0C00
0C00
0300
0300
0000
0000
0FC0
0FC0
0300
0300
0300
0300
0300
0300
0300
0300
0300
0300
0300
0300
0FC0
0FC0
0000
0000
0000
0000
0000
0000
ENDCHAR
STARTCHAR Iacute
ENCODING 205
SWIDTH 800 0
DWIDTH 16 0
BBX 16 28 0 -6
BITMAP
00C0
00C0
0300
0300
0000
0000
0FC0
0FC0
0300
0300
0300
0300
0300
0300
0300
0300
0300
0300
0300
0300
0FC0
0FC0
0000
0000
0000
0000
0000
0000
ENDCHAR
STARTCHAR Icircumflex
ENCODING 206
SWIDTH 800 0
DWIDTH 16 0
BBX 16 28 0 -6
BITMAP
03C0
03C0
0C30
0C30
0000
0000
0FC0
0FC0
0300
0300
0300
0300
0300
0300
0300
0300
0300
0300
0300
0300
0FC0
0FC0
0000
0000
0000
0000
0000
0000
ENDCHAR
STARTCHAR Idieresis
ENCODING 207
SWIDTH 800 0
DWIDTH 16 0
BBX 16 28 0 -6
BITMAP
3030
3030
3030
3030
0000
0000
0FC0
0FC0
0300
0300
0300
0300
0300
0300
0300
0300
0300
0300
0300
0300
0FC0
0FC0
0000
0000
0000
0000
0000
0000
ENDCHAR
STARTCHAR Eth
ENCODING 208
SWIDTH 800 0
DWIDTH 16 0
BBX 16 28 0 -6
BITMAP
0000
0000
0000
0000
3FC0
3FC0
3030
3030
300C
300C
300C
300C
FF0C
FF0C
300C
300C
300C
300C
3030
3030
3FC0
3FC0
0000
0000
0000
0000
0000
0000
ENDCHAR
STARTCHAR Ntilde
ENCODING 209
SWIDTH 800 0
DWIDTH 16 0
BBX 16 28 0 -6
BITMAP
0F0C
0F0C
30F0
30F0
0000
0000
3C0C
3C0C
3C0C
3C0C
330C
330C
330C
330C
30CC
30CC
30CC
30CC
303C
303C
303C
303C
0000
0000
0000
0000
0000
0000
ENDCHAR
STARTCHAR Ograve
ENCODING 210
SWIDTH 800 0
DWIDTH 16 0
BBX 16 28 0 -6
BITMAP
0300
0300
00C0
00C0
0FF0
0FF0
300C
300C
300C
300C
300C
300C
300C
300C
300C
300C
300C
300C
300C
300C
0FF0
0FF0
0000
0000
0000
0000
0000
0000
ENDCHAR
STARTCHAR Oacute
ENCODING 211
SWIDTH 800 0
DWIDTH 16 0
BBX 16 28 0 -6
BITMAP
00C0
00C0
0300
0300
0FF0
0FF0
300C
300C
300C
300C
300C
300C
300C
300C
300C
300C
300C
300C
300C
300C
0FF0
0FF0
0000
0000
0000
0000
0000
0000
ENDCHAR
STARTCHAR Ocircumflex
ENCODING 212
SWIDTH 800 0
DWIDTH 16 0
BBX 16 28 0 -6
BITMAP
03C0
03C0
0C30
0C30
0000
0000
0FF0
0FF0
300C
300C
300C
300C
300C
300C
300C
300C
300C
300C
300C
300C
0FF0
0FF0
0000
0000
0000
0000
0000
0000
ENDCHAR
STARTCHAR Otilde
ENCODING 213
SWIDTH 800 0
DWIDTH 16 0
BBX 16 28 0 -6
BITMAP
0F0C
0F0C
30F0
30F0
0000
0000
0FF0
0FF0
300C
300C
300C
300C
300C
300C
300C
300C
300C
300C
300C
300C
0FF0
0FF0
0000
0000
0000
0000
0000
0000
ENDCHAR
STARTCHAR Odieresis
ENCODING 214
SWIDTH 800 0
DWIDTH 16 0
BBX 16 28 0 -6
BITMAP
0C30
0C30
0C30
0C30
0000
0000
0FF0
0FF0
300C
300C
300C
300C
300C
300C
300C
300C
300C
300C
300C
300C
0FF0
0FF0
0000
0000
0000
0000
0000
0000
ENDCHAR
STARTCHAR multiply
ENCODING 215
SWIDTH 800 0
DWIDTH 16 0
BBX 16 28 0 -6
BITMAP
0000
0000
0000
0000
0000
0000
0000
0000
0000
0000
300C
300C
0C30
0C30
03C0
03C0
0C30
0C30
300C
300C
0000
0000
0000
0000
0000
0000
0000
0000
ENDCHAR
STARTCHAR Oslash
ENCODING 216
SWIDTH 800 0
DWIDTH 16 0
BBX 16 28 0 -6
BITMAP
000C
000C
0FCC
0FCC
3030
3030
303C
303C
30CC
30CC
30CC
30CC
330C
330C
330C
330C
3C0C
3C0C
0C0C
0C0C
33F0
33F0
3000
3000
0000
0000
0000
0000
ENDCHAR
STARTCHAR Ugrave
ENCODING 217
SWIDTH 800 0
DWIDTH 16 0
BBX 16 28 0 -6
BITMAP
0300
0300
00C0
00C0
300C
300C
300C
300C
300C
300C
300C
300C
300C
300C
300C
300C
300C
300C
300C
300C
0FF0
0FF0
0000
0000
0000
0000
0000
0000
ENDCHAR
STARTCHAR Uacute
ENCODING 218
SWIDTH 800 0
DWIDTH 16 0
BBX 16 28 0 -6
BITMAP
00C0
00C0
0300
0300
300C
300C
300C
300C
300C
300C
300C
300C
300C
300C
300C
300C
300C
300C
300C
300C
0FF0
0FF0
0000
0000
0000
0000
0000
0000
ENDCHAR
STARTCHAR Ucircumflex
ENCODING 219
SWIDTH 800 0
DWIDTH 16 0
BBX 16 28 0 -6
BITMAP
03C0
03C0
0C30
0C30
0000
0000
300C
300C
300C
300C
300C
300C
300C
300C
300C
300C
300C
300C
300C
300C
0FF0
0FF0
0000
0000
0000
0000
0000
0000
ENDCHAR
STARTCHAR Udieresis
ENCODING 220
SWIDTH 800 0
DWIDTH 16 0
BBX 16 28 0 -6
BITMAP
0C30
0C30
0C30
0C30
0000
0000
300C
300C
300C
300C
300C
300C
300C
300C
300C
300C
300C
300C
300C
300C
0FF0
0FF0
0000
0000
0000
0000
0000
0000
ENDCHAR
STARTCHAR Yacute
ENCODING 221
SWIDTH 800 0
DWIDTH 16 0
BBX 16 28 0 -6
BITMAP
00C0
00C0
0300
0300
C00C
C00C
C00C
C00C
3030
3030
3030
3030
0CC0
0CC0
0300
0300
0300
0300
0300
0300
0300
0300
0000
0000
0000
0000
0000
0000
ENDCHAR
STARTCHAR Thorn
ENCODING 222
SWIDTH 800 0
DWIDTH 16 0
BBX 16 28 0 -6
BITMAP
0000
0000
3000
3000
3000
3000
3FF0
3FF0
300C
300C
300C
300C
300C
300C
300C
300C
3FF0
3FF0
3000
3000
3000
3000
0000
0000
0000
0000
0000
0000
ENDCHAR
STARTCHAR germandbls
ENCODING 223
SWIDTH 800 0
DWIDTH 16 0
BBX 16 28 0 -6
BITMAP
0000
0000
0FC0
0FC0
3030
3030
3030
3030
30C0
30C0
3FF0
3FF0
300C
300C
300C
300C
300C
300C
3C0C
3C0C
33F0
33F0
0000
0000
0000
0000
0000
0000
ENDCHAR
STARTCHAR agrave
ENCODING 224
SWIDTH 800 0
DWIDTH 16 0
BBX 16 28 0 -6
BITMAP
0000
0000
0300
0300
00C0
00C0
0000
0000
0FF0
0FF0
000C
000C
0FFC
0FFC
300C
300C
300C
300C
303C
303C
0FCC
0FCC
0000
0000
0000
0000
0000
0000
ENDCHAR
STARTCHAR aacute
ENCODING 225
SWIDTH 800 0
DWIDTH 16 0
BBX 16 28 0 -6
BITMAP
0000
0000
00C0
00C0
0300
0300
0000
0000
0FF0
0FF0
000C
000C
0FFC
0FFC
300C
300C
300C
300C
303C
303C
0FCC
0FCC
0000
0000
0000
0000
0000
0000
ENDCHAR
STARTCHAR acircumflex
ENCODING 226
SWIDTH 800 0
DWIDTH 16 0
BBX 16 28 0 -6
BITMAP
0000
0000
03C0
03C0
0C30
0C30
0000
0000
0FF0
0FF0
000C
000C
0FFC
0FFC
300C
300C
300C
300C
303C
303C
0FCC
0FCC
0000
0000
0000
0000
0000
0000
ENDCHAR
STARTCHAR atilde
ENCODING 227
SWIDTH 800 0
DWIDTH 16 0
BBX 16 28 0 -6
BITMAP
0000
0000
0F0C
0F0C
30F0
30F0
0000
0000
0FF0
0FF0
000C
000C
0FFC
0FFC
300C
300C
300C
300C
303C
303C
0FCC
0FCC
0000
0000
0000
0000
0000
0000
ENDCHAR
STARTCHAR adieresis
ENCODING 228
SWIDTH 800 0
DWIDTH 16 0
BBX 16 28 0 -6
BITMAP
0000
0000
0C30
0C30
0C30
0C30
0000
0000
0FF0
0FF0
000C
000C
0FFC
0FFC
300C
300C
300C
300C
303C
303C
0FCC
0FCC
0000
0000
0000
0000
0000
0000
ENDCHAR
STARTCHAR aring
ENCODING 229
SWIDTH 800 0
DWIDTH 16 0
BBX 16 28 0 -6
BITMAP
0000
0000
03C0
03C0
0C30
0C30
03C0
03C0
0FF0
0FF0
000C
000C
0FFC
0FFC
300C
300C
300C
300C
303C
303C
0FCC
0FCC
0000
0000
0000
0000
0000
0000
ENDCHAR
STARTCHAR ae
ENCODING 230
SWIDTH 800 0
DWIDTH 16 0
BBX 16 28 0 -6
BITMAP
0000
0000
0000
0000
0000
0000
0000
0000
3CF0
3CF0
030C
030C
3F0C
3F0C
C3FC
C3FC
C300
C300
C300
C300
3CF0
3CF0
0000
0000
0000
0000
0000
0000
ENDCHAR
STARTCHAR ccedilla
ENCODING 231
SWIDTH 800 0
DWIDTH 16 0
BBX 16 28 0 -6
BITMAP
0000
0000
0000
0000
0000
0000
0000
0000
0FF0
0FF0
300C
300C
3000
3000
3000
3000
3000
3000
300C
300C
0FF0
0FF0
0300
0300
0C00
0C00
0000
0000
ENDCHAR
STARTCHAR egrave
ENCODING 232
SWIDTH 800 0
DWIDTH 16 0
BBX 16 28 0 -6
BITMAP
0000
0000
0300
0300
00C0
00C0
0000
0000
0FF0
0FF0
300C
300C
300C
300C
3FFC
3FFC
3000
3000
3000
3000
0FFC
0FFC
0000
0000
0000
0000
0000
0000
ENDCHAR
STARTCHAR eacute
ENCODING 233
SWIDTH 800 0
DWIDTH 16 0
BBX 16 28 0 -6
BITMAP
0000
0000
00C0
00C0
0300
0300
0000
0000
0FF0
0FF0
300C
300C
300C
300C
3FFC
3FFC
3000
3000
3000
3000
0FFC
0FFC
0000
0000
0000
0000
0000
0000
ENDCHAR
STARTCHAR ecircumflex
ENCODING 234
SWIDTH 800 0
DWIDTH 16 0
BBX 16 28 0 -6
BITMAP
0000
0000
03C0
03C0
0C30
0C30
0000
0000
0FF0
0FF0
300C
300C
300C
300C
3FFC
3FFC
3000
3000
3000
3000
0FFC
0FFC
0000
0000
0000
0000
0000
0000
ENDCHAR
STARTCHAR edieresis
ENCODING 235
SWIDTH 800 0
DWIDTH 16 0
BBX 16 28 0 -6
BITMAP
0000
0000
0C30
0C30
0C30
0C30
0000
0000
0FF0
0FF0
300C
300C
300C
300C
3FFC
3FFC
3000
3000
3000
3000
0FFC
0FFC
0000
0000
0000
0000
0000
0000
ENDCHAR
STARTCHAR igrave
ENCODING 236
SWIDTH 800 0
DWIDTH 16 0
BBX 16 28 0 -6
BITMAP
0000
0000
0C00
0C00
0300
0300
0000
0000
3F00
3F00
0300
0300
0300
0300
0300
0300
0300
0300
0300
0300
03F0
03F0
0000
0000
0000
0000
0000
0000
ENDCHAR
STARTCHAR iacute
ENCODING 237
SWIDTH 800 0
DWIDTH 16 0
BBX 16 28 0 -6
BITMAP
0000
0000
00C0
00C0
0300
0300
0000
0000
3F00
3F00
0300
0300
0300
0300
0300
0300
0300
0300
0300
0300
03F0
03F0
0000
0000
0000
0000
0000
0000
ENDCHAR
STARTCHAR icircumflex
ENCODING 238
SWIDTH 800 0
DWIDTH 16 0
BBX 16 28 0 -6
BITMAP
0000
0000
0F00
0F00
30C0
30C0
0000
0000
3F00
3F00
0300
0300
0300
0300
0300
0300
0300
0300
0300
0300
03F0
03F0
0000
0000
0000
0000
0000
0000
ENDCHAR
STARTCHAR idieresis
ENCODING 239
SWIDTH 800 0
DWIDTH 16 0
BBX 16 28 0 -6
BITMAP
0000
0000
30C0
30C0
30C0
30C0
0000
0000
3F00
3F00
0300
0300
0300
0300
0300
0300
0300
0300
0300
0300
03F0
03F0
0000
0000
0000
0000
0000
0000
ENDCHAR
STARTCHAR eth
ENCODING 240
SWIDTH 800 0
DWIDTH 16 0
BBX 16 28 0 -6
BITMAP
0000
0000
0CC0
0CC0
0300
0300
0CC0
0CC0
0FF0
0FF0
300C
300C
300C
300C
300C
300C
300C
300C
300C
300C
0FF0
0FF0
0000
0000
0000
0000
0000
0000
ENDCHAR
STARTCHAR ntilde
ENCODING 241
SWIDTH 800 0
DWIDTH 16 0
BBX 16 28 0 -6
BITMAP
0000
0000
0F0C
0F0C
30F0
30F0
0000
0000
3FF0
3FF0
300C
300C
300C
300C
300C
300C
300C
300C
300C
300C
300C
300C
0000
0000
0000
0000
0000
0000
ENDCHAR
STARTCHAR ograve
ENCODING 242
SWIDTH 800 0
DWIDTH 16 0
BBX 16 28 0 -6
BITMAP
0000
0000
0300
0300
00C0
00C0
0000
0000
0FF0
0FF0
300C
300C
300C
300C
300C
300C
300C
300C
300C
300C
0FF0
0FF0
0000
0000
0000
0000
0000
0000
ENDCHAR
STARTCHAR oacute
ENCODING 243
SWIDTH 800 0
DWIDTH 16 0
BBX 16 28 0 -6
BITMAP
0000
0000
00C0
00C0
0300
0300
0000
0000
0FF0
0FF0
300C
300C
300C
300C
300C
300C
300C
300C
300C
300C
0FF0
0FF0
0000
0000
0000
0000
0000
0000
ENDCHAR
STARTCHAR ocircumflex
ENCODING 244
SWIDTH 800 0
DWIDTH 16 0
BBX 16 28 0 -6
BITMAP
0000
0000
03C0
03C0
0C30
0C30
0000
0000
0FF0
0FF0
300C
300C
300C
300C
300C
300C
300C
300C
300C
300C
0FF0
0FF0
0000
0000
0000
0000
0000
0000
ENDCHAR
STARTCHAR otilde
ENCODING 245
SWIDTH 800 0
DWIDTH 16 0
BBX 16 28 0 -6
BITMAP
0000
0000
0F0C
0F0C
30F0
30F0
0000
0000
0FF0
0FF0
300C
300C
300C
300C
300C
300C
300C
300C
300C
300C
0FF0
0FF0
0000
0000
0000
0000
0000
0000
ENDCHAR
STARTCHAR odieresis
ENCODING 246
SWIDTH 800 0
DWIDTH 16 0
BBX 16 28 0 -6
BITMAP
0000
0000
0C30
0C30
0C30
0C30
0000
0000
0FF0
0FF0
300C
300C
300C
300C
300C
300C
300C
300C
300C
300C
0FF0
0FF0
0000
0000
0000
0000
0000
0000
ENDCHAR
STARTCHAR divide
ENCODING 247
SWIDTH 800 0
DWIDTH 16 0
BBX 16 28 0 -6
BITMAP
0000
0000
0000
0000
0000
0000
0000
0000
0300
0300
0300
0300
0000
0000
3FF0
3FF0
0000
0000
0300
0300
0300
0300
0000
0000
0000
0000
0000
0000
ENDCHAR
STARTCHAR oslash
ENCODING 248
SWIDTH 800 0
DWIDTH 16 0
BBX 16 28 0 -6
BITMAP
0000
0000
0000
0000
0000
0000
000C
000C
0FF0
0FF0
303C
303C
30CC
30CC
330C
330C
3C0C
3C0C
300C
300C
CFF0
CFF0
0000
0000
0000
0000
0000
0000
ENDCHAR
STARTCHAR ugrave
ENCODING 249
SWIDTH 800 0
DWIDTH 16 0
BBX 16 28 0 -6
BITMAP
0000
0000
0300
0300
00C0
00C0
0000
0000
300C
300C
300C
300C
300C
300C
300C
300C
300C
300C
303C
303C
0FCC
0FCC
0000
0000
0000
0000
0000
0000
ENDCHAR
STARTCHAR uacute
ENCODING 250
SWIDTH 800 0
DWIDTH 16 0
BBX 16 28 0 -6
BITMAP
0000
0000
00C0
00C0
0300
0300
0000
0000
300C
300C
300C
300C
300C
300C
300C
300C
300C
300C
303C
303C
0FCC
0FCC
0000
0000
0000
0000
0000
0000
ENDCHAR
STARTCHAR ucircumflex
ENCODING 251
SWIDTH 800 0
DWIDTH 16 0
BBX 16 28 0 -6
BITMAP
0000
0000
03C0
03C0
0C30
0C30
0000
0000
300C
300C
300C
300C
300C
300C
300C
300C
300C
300C
303C
303C
0FCC
0FCC
0000
0000
0000
0000
0000
0000
ENDCHAR
STARTCHAR udieresis
ENCODING 252
SWIDTH 800 0
DWIDTH 16 0
BBX 16 28 0 -6
BITMAP
0000
0000
0C30
0C30
0C30
0C30
0000
0000
300C
300C
300C
300C
300C
300C
300C
300C
300C
300C
303C
303C
0FCC
0FCC
0000
0000
0000
0000
0000
0000
ENDCHAR
STARTCHAR yacute
ENCODING 253
SWIDTH 800 0
DWIDTH 16 0
BBX 16 28 0 -6
BITMAP
0000
0000
00C0
00C0
0300
0300
0000
0000
300C
300C
300C
300C
300C
300C
300C
300C
300C
300C
303C
303C
0FCC
0FCC
000C
000C
000C
000C
0FF0
0FF0
ENDCHAR
STARTCHAR thorn
ENCODING 254
SWIDTH 800 0
DWIDTH 16 0
BBX 16 28 0 -6
BITMAP
0000
0000
3000
3000
3000
3000
3000
3000
3FF0
3FF0
300C
300C
300C
300C
300C
300C
300C
300C
300C
300C
3FF0
3FF0
3000
3000
3000
3000
0000
0000
ENDCHAR
STARTCHAR ydieresis
ENCODING 255
SWIDTH 800 0
DWIDTH 16 0
BBX 16 28 0 -6
BITMAP
0000
0000
0C30
0C30
0C30
0C30
0000
0000
300C
300C
300C
300C
300C
300C
300C
300C
300C
300C
303C
303C
0FCC
0FCC
000C
000C
000C
000C
0FF0
0FF0
ENDCHAR
ENDFONT
